<svg xmlns="http://www.w3.org/2000/svg" viewBox="0 0 100 100" preserveAspectRatio="xMidYMid" width="205" height="205" style="shape-rendering: auto; display: block; background: transparent;" xmlns:xlink="http://www.w3.org/1999/xlink"><g><g transform="rotate(0 50 50)">
  <rect fill="#4589c3" height="15" width="6" ry="3.9" rx="3" y="22.5" x="47">
    <animate repeatCount="indefinite" begin="-0.7902298850574712s" dur="0.8620689655172413s" keyTimes="0;1" values="1;0" attributeName="opacity"></animate>
  </rect>
</g><g transform="rotate(30 50 50)">
  <rect fill="#4589c3" height="15" width="6" ry="3.9" rx="3" y="22.5" x="47">
    <animate repeatCount="indefinite" begin="-0.7183908045977011s" dur="0.8620689655172413s" keyTimes="0;1" values="1;0" attributeName="opacity"></animate>
  </rect>
</g><g transform="rotate(60 50 50)">
  <rect fill="#4589c3" height="15" width="6" ry="3.9" rx="3" y="22.5" x="47">
    <animate repeatCount="indefinite" begin="-0.6465517241379309s" dur="0.8620689655172413s" keyTimes="0;1" values="1;0" attributeName="opacity"></animate>
  </rect>
</g><g transform="rotate(90 50 50)">
  <rect fill="#4589c3" height="15" width="6" ry="3.9" rx="3" y="22.5" x="47">
    <animate repeatCount="indefinite" begin="-0.5747126436781609s" dur="0.8620689655172413s" keyTimes="0;1" values="1;0" attributeName="opacity"></animate>
  </rect>
</g><g transform="rotate(120 50 50)">
  <rect fill="#4589c3" height="15" width="6" ry="3.9" rx="3" y="22.5" x="47">
    <animate repeatCount="indefinite" begin="-0.5028735632183907s" dur="0.8620689655172413s" keyTimes="0;1" values="1;0" attributeName="opacity"></animate>
  </rect>
</g><g transform="rotate(150 50 50)">
  <rect fill="#4589c3" height="15" width="6" ry="3.9" rx="3" y="22.5" x="47">
    <animate repeatCount="indefinite" begin="-0.43103448275862066s" dur="0.8620689655172413s" keyTimes="0;1" values="1;0" attributeName="opacity"></animate>
  </rect>
</g><g transform="rotate(180 50 50)">
  <rect fill="#4589c3" height="15" width="6" ry="3.9" rx="3" y="22.5" x="47">
    <animate repeatCount="indefinite" begin="-0.35919540229885055s" dur="0.8620689655172413s" keyTimes="0;1" values="1;0" attributeName="opacity"></animate>
  </rect>
</g><g transform="rotate(210 50 50)">
  <rect fill="#4589c3" height="15" width="6" ry="3.9" rx="3" y="22.5" x="47">
    <animate repeatCount="indefinite" begin="-0.28735632183908044s" dur="0.8620689655172413s" keyTimes="0;1" values="1;0" attributeName="opacity"></animate>
  </rect>
</g><g transform="rotate(240 50 50)">
  <rect fill="#4589c3" height="15" width="6" ry="3.9" rx="3" y="22.5" x="47">
    <animate repeatCount="indefinite" begin="-0.21551724137931033s" dur="0.8620689655172413s" keyTimes="0;1" values="1;0" attributeName="opacity"></animate>
  </rect>
</g><g transform="rotate(270 50 50)">
  <rect fill="#4589c3" height="15" width="6" ry="3.9" rx="3" y="22.5" x="47">
    <animate repeatCount="indefinite" begin="-0.14367816091954022s" dur="0.8620689655172413s" keyTimes="0;1" values="1;0" attributeName="opacity"></animate>
  </rect>
</g><g transform="rotate(300 50 50)">
  <rect fill="#4589c3" height="15" width="6" ry="3.9" rx="3" y="22.5" x="47">
    <animate repeatCount="indefinite" begin="-0.07183908045977011s" dur="0.8620689655172413s" keyTimes="0;1" values="1;0" attributeName="opacity"></animate>
  </rect>
</g><g transform="rotate(330 50 50)">
  <rect fill="#4589c3" height="15" width="6" ry="3.9" rx="3" y="22.5" x="47">
    <animate repeatCount="indefinite" begin="0s" dur="0.8620689655172413s" keyTimes="0;1" values="1;0" attributeName="opacity"></animate>
  </rect>
</g><g></g></g><!-- [ldio] generated by https://loading.io --></svg>